<?xml version="1.0" encoding="utf-8"?>
<!DOCTYPE svg PUBLIC "-//W3C//DTD SVG 1.0//EN" "http://www.w3.org/TR/2001/REC-SVG-20010904/DTD/svg10.dtd">
<svg version="1.0" xmlns="http://www.w3.org/2000/svg" width="96px" height="96px" viewBox="0 0 96 96" preserveAspectRatio="xMidYMid meet">
 <g fill="#9b6dff">
  <path d="M20.6 77.5 c-1 -2.5 -1.7 -4.8 -1.5 -4.9 0.2 -0.2 1.8 -1.1 3.6 -2 5.7 -2.9 5.3 -5.8 -2.2 -15.2 -2.5 -3.1 -3 -4.6 -3 -9.2 0 -5 0.3 -5.7 3.7 -8.6 3.7 -3.2 9.5 -5.6 13.7 -5.6 1.4 0 2.5 1.1 3.6 3.6 2 5 2 5.2 -2 6.8 -5 2.1 -4.7 5.4 1 12.4 5.1 6.1 6 8.7 5.1 13.7 -1 5.1 -9.5 11.5 -17.3 13.1 -2.8 0.5 -3.1 0.3 -4.7 -4.1z"/>
  <path d="M44.5 74 c0.4 -0.6 1 -3.1 1.3 -5.5 l0.7 -4.5 2.9 1.5 c3.7 2 14.6 1.9 19.3 0 l3.7 -1.6 -4.1 3.8 c-2.3 2.1 -5.8 4.4 -8 5.2 -5.1 1.8 -16.8 2.7 -15.8 1.1z"/>
  <path d="M52.6 63.2 c-0.3 -0.5 -0.2 -2.6 0.1 -4.7 0.5 -3 1.2 -4 3.7 -5 1.7 -0.7 4 -2.3 5 -3.4 2.1 -2.3 1.9 -6.8 -1.1 -26.4 -1.5 -9.4 -1.5 -10.9 -0.3 -11.7 2.2 -1.4 12 -2.4 13 -1.4 1.4 1.6 5.2 31.6 4.6 36.8 -0.7 6.6 -4.3 11.8 -10 14.4 -4.6 2.2 -14 3 -15 1.4z"/>
  <path d="M40.1 52.3 c-3.5 -4.2 -3.8 -5.8 -1.5 -6.7 2.9 -1.1 3.6 -0.7 3 1.9 -0.6 2.5 -0.6 2.5 6.1 2.6 5.1 0 6.2 0.3 4.6 0.9 -1.3 0.5 -2.3 1.6 -2.3 2.4 0 1.5 -2.1 2.6 -5 2.6 -1 0 -3.2 -1.7 -4.9 -3.7z"/>
  <path d="M55 45.1 c0 -5.4 -0.8 -5.9 -8.4 -5.7 -2.3 0.1 -3.6 -0.4 -3.6 -1.2 0 -0.7 -0.7 -2.9 -1.6 -5 -0.9 -2 -1.6 -4.7 -1.5 -5.9 0.3 -2.8 -0.4 -2.9 -3.6 -0.3 -1.4 1.1 -3.7 2 -5.2 2 -1.4 0 -4.5 0.9 -6.9 2 l-4.3 2 2.3 -3.8 c2.8 -4.6 6.6 -7.9 13.1 -11.4 4.1 -2.3 6.2 -2.8 12.3 -2.8 8.2 0 8.2 0 8.9 8.9 0.2 2.8 0.6 5.5 0.9 6 0.4 0.5 1 4.2 1.6 8.2 0.9 7.5 0.3 10.2 -2.5 11.3 -1.2 0.4 -1.5 -0.4 -1.5 -4.3z m-2 -11.8 c0 -1.3 -4.2 -9.3 -4.9 -9.3 -0.9 0 -4.1 6.6 -4.1 8.5 0 1.1 1.2 1.5 4.5 1.5 2.5 0 4.5 -0.3 4.5 -0.7z"/>
 </g>
</svg>